<?xml version="1.0" encoding="UTF-8" standalone="no"?>
<!-- Created with Inkscape (http://www.inkscape.org/) -->

<svg
   xmlns:dc="http://purl.org/dc/elements/1.1/"
   xmlns:cc="http://creativecommons.org/ns#"
   xmlns:rdf="http://www.w3.org/1999/02/22-rdf-syntax-ns#"
   xmlns:svg="http://www.w3.org/2000/svg"
   xmlns="http://www.w3.org/2000/svg"
   xmlns:sodipodi="http://sodipodi.sourceforge.net/DTD/sodipodi-0.dtd"
   xmlns:inkscape="http://www.inkscape.org/namespaces/inkscape"
   width="1000"
   height="1000"
   id="svg2"
   version="1.1"
   inkscape:version="0.48.4 r9939"
   sodipodi:docname="pencil.svg">
  <defs
     id="defs4">
    <inkscape:path-effect
       is_visible="true"
       id="path-effect4175"
       effect="spiro" />
  </defs>
  <sodipodi:namedview
     id="base"
     pagecolor="#ffffff"
     bordercolor="#666666"
     borderopacity="1.0"
     inkscape:pageopacity="0.0"
     inkscape:pageshadow="2"
     inkscape:zoom="0.73738727"
     inkscape:cx="145.86547"
     inkscape:cy="563.92033"
     inkscape:document-units="px"
     inkscape:current-layer="svg2"
     showgrid="false"
     showguides="true"
     inkscape:guide-bbox="true"
     inkscape:window-width="1920"
     inkscape:window-height="1147"
     inkscape:window-x="-8"
     inkscape:window-y="-8"
     inkscape:window-maximized="1">
    <sodipodi:guide
       orientation="0,1"
       position="500,500"
       id="guide3884" />
    <sodipodi:guide
       orientation="1,0"
       position="500,500"
       id="guide3886" />
  </sodipodi:namedview>
  <metadata
     id="metadata7">
    <rdf:RDF>
      <cc:Work
         rdf:about="">
        <dc:format>image/svg+xml</dc:format>
        <dc:type
           rdf:resource="http://purl.org/dc/dcmitype/StillImage" />
        <dc:title />
      </cc:Work>
    </rdf:RDF>
  </metadata>
  <path
     style="fill:#000000;fill-opacity:1"
     d="M 323.01886,823.55507 C 383.90829,806.53611 444.79773,789.51715 505.68716,772.49819 626.48995,650.94042 749.66615,531.65023 867.55565,407.26756 872.96176,357.102 864.58482,306.52989 861.96328,256.2818 821.96458,217.8359 785.89461,174.28285 740.07883,142.68501 694.82777,136.00216 649.05532,133.84852 603.50706,129.91909 478.48102,255.04357 353.45499,380.16805 228.42896,505.29254 196.9359,623.60112 160.98432,740.8521 135.57178,860.66997 c 7.48538,21.32539 54.89119,-7.56977 77.2754,-7.55442 36.8432,-9.40161 73.54935,-19.33445 110.17168,-29.56048 z M 212.95218,780.49885 c -10.52578,-9.68691 -13.6713,-20.86996 -7.26032,-33.99032 10.93302,-41.26382 18.01751,-83.77468 32.96766,-123.79904 42.54687,-20.74687 39.58169,55.46406 67.29833,73.62421 17.39178,30.78797 86.91513,25.19613 76.95218,67.46991 -42.00279,17.97875 -87.95305,26.78275 -133.07896,33.43253 -14.2577,1.22326 -28.76579,-4.68616 -36.87889,-16.73729 z m 232.81008,-46.80592 c -32.75858,-33.56219 25.79182,-65.97199 43.38454,-91.97008 81.33294,-83.62623 164.53234,-165.41048 246.8565,-248.05717 23.52534,2.94717 47.61224,3.35066 70.49869,9.80946 -10.97511,32.95253 -45.36723,55.57059 -67.98858,82.45032 -79.46282,78.54177 -156.07928,160.25231 -239.78444,234.33376 -14.6272,11.89389 -34.20512,27.01857 -52.96671,13.43371 z M 341.38285,666.38542 c -34.24403,-26.32143 -7.36217,-69.31327 18.2399,-90.48395 85.93256,-88.61647 172.76029,-176.53805 263.20378,-260.56611 24.87301,2.83329 62.23845,41.39934 63.77502,67.08889 -80.47149,90.90662 -168.03787,175.33624 -255.0981,259.8791 -22.05643,22.23122 -55.05768,54.46696 -86.27839,27.08791 l -3.84221,-3.00584 0,0 z M 267.86856,552.4092 c -17.34501,-38.99249 38.87313,-60.49687 56.35905,-89.72987 86.30305,-87.84131 172.27495,-176.18937 262.92431,-259.57121 26.32344,-6.94433 17.61776,40.3891 19.32409,59.302 3.65536,15.52715 -14.37618,22.0899 -22.09299,32.9163 -86.22908,85.19147 -169.5149,173.49013 -258.9094,255.37913 -14.08135,15.1902 -47.95237,28.83164 -57.60506,1.70365 z M 742.91819,350.45055 c -32.45315,-23.79042 -61.92287,-52.88734 -86.26742,-84.89065 -6.28051,-25.08986 -29.17666,-83.82348 6.80171,-88.35624 24.203,1.03274 50.35104,1.61959 73.48954,6.99392 26.72572,28.80671 58.40077,53.74271 80.02545,86.72705 4.47045,26.30032 25.9499,81.0276 -11.6264,87.37298 -20.92219,-1.13369 -41.83888,-3.95218 -62.42288,-7.84706 z m 31.51609,-51.81111 c 3.34919,-36.05117 -34.9908,-73.08165 -70.70368,-70.56151 -24.89168,27.03228 20.04654,64.83997 45.4086,76.18484 8.22797,3.29847 21.42727,4.85772 25.29508,-5.62333 z"
     id="path3016"
     inkscape:connector-curvature="0" />
</svg>
