<?xml version="1.0" encoding="UTF-8" standalone="no"?>
<!-- Created with Inkscape (http://www.inkscape.org/) -->

<svg
   xmlns:dc="http://purl.org/dc/elements/1.1/"
   xmlns:cc="http://creativecommons.org/ns#"
   xmlns:rdf="http://www.w3.org/1999/02/22-rdf-syntax-ns#"
   xmlns:svg="http://www.w3.org/2000/svg"
   xmlns="http://www.w3.org/2000/svg"
   xmlns:sodipodi="http://sodipodi.sourceforge.net/DTD/sodipodi-0.dtd"
   xmlns:inkscape="http://www.inkscape.org/namespaces/inkscape"
   width="1000"
   height="1000"
   id="svg2"
   version="1.1"
   inkscape:version="0.48.4 r9939"
   sodipodi:docname="cog.xaml">
  <defs
     id="defs4">
    <inkscape:path-effect
       is_visible="true"
       id="path-effect4175"
       effect="spiro" />
  </defs>
  <sodipodi:namedview
     id="base"
     pagecolor="#ffffff"
     bordercolor="#666666"
     borderopacity="1.0"
     inkscape:pageopacity="0.0"
     inkscape:pageshadow="2"
     inkscape:zoom="0.73738727"
     inkscape:cx="145.86547"
     inkscape:cy="563.92033"
     inkscape:document-units="px"
     inkscape:current-layer="svg2"
     showgrid="false"
     showguides="true"
     inkscape:guide-bbox="true"
     inkscape:window-width="1920"
     inkscape:window-height="1147"
     inkscape:window-x="-8"
     inkscape:window-y="-8"
     inkscape:window-maximized="1">
    <sodipodi:guide
       orientation="0,1"
       position="500,500"
       id="guide3884" />
    <sodipodi:guide
       orientation="1,0"
       position="500,500"
       id="guide3886" />
  </sodipodi:namedview>
  <metadata
     id="metadata7">
    <rdf:RDF>
      <cc:Work
         rdf:about="">
        <dc:format>image/svg+xml</dc:format>
        <dc:type
           rdf:resource="http://purl.org/dc/dcmitype/StillImage" />
        <dc:title></dc:title>
      </cc:Work>
    </rdf:RDF>
  </metadata>
  <path
     style="fill:#000000;fill-opacity:1;stroke:#ffffff;stroke-width:4.25547647;stroke-linecap:butt;stroke-linejoin:miter;stroke-miterlimit:1.10000002;stroke-opacity:1;stroke-dasharray:none"
     d="m 367.17969,43.789354 c -171.40302,0 -310.354273,134.925416 -310.354273,301.370496 0,152.97514 117.391223,279.35025 269.454413,298.79947 -0.0895,-2.97664 -0.1182,-5.95654 -0.1182,-8.95423 0,-136.23231 93.09549,-251.33075 220.87105,-288.63361 -6.5302,-18.85406 -10.0772,-39.02862 -10.0772,-60.01995 0,-55.36722 24.64208,-105.13606 63.83215,-139.57373 C 543.89588,83.665171 460.3373,43.789354 367.17969,43.789354 z M 600.78763,146.7778 c 45.90581,50.92542 74.4555,116.97382 76.62813,189.45737 71.52243,9.14787 135.35876,41.95231 182.92639,90.0447 39.42816,-34.45021 64.21633,-84.36839 64.21633,-139.92834 0,-103.94086 -86.76453,-188.216193 -193.8015,-188.216193 -50.02052,0 -95.58793,18.430313 -129.96935,48.642463 z m 259.55452,279.50207 c -34.33353,29.99881 -79.76314,48.25829 -129.58517,48.25829 -27.09015,0 -52.88742,-5.38287 -76.30306,-15.13058 -46.35237,109.80459 -157.51038,187.15231 -287.27423,187.15231 -13.87117,0 -27.51023,-0.888 -40.89986,-2.60057 4.88093,162.29973 141.92003,292.41626 310.23607,292.41626 171.40302,0 310.32472,-134.92541 310.32472,-301.37049 0,-81.02378 -32.93298,-154.5688 -86.49847,-208.72522 z m -205.88823,33.12771 c 14.87374,-35.23457 23.08005,-73.813 23.08005,-114.24773 0,-2.98777 -0.0293,-5.95781 -0.11821,-8.92468 -13.38963,-1.71257 -27.02869,-2.60057 -40.89986,-2.60057 -31.11272,0 -61.14594,4.46408 -89.48322,12.73688 17.6211,50.87575 57.0029,92.0474 107.42124,113.0361 z"
     id="path4003"
     inkscape:connector-curvature="0" />
</svg>
